<svg width="208" height="126" viewBox="0 0 208 126" fill="none" xmlns="http://www.w3.org/2000/svg" id="ghost">
<g id="ghost-body">
    <path d="M207.999 99.016C207.999 99.016 177.176 91.34 160.587 76.414C145.918 63.214 135.965 42.637 128.893 32.733C121.82 22.828 106.889 1.24202 76.2423 0.988019C45.5954 0.734019 28.5686 19.527 24.3779 41.114C20.1872 62.701 31.7124 103.334 79.6481 118.572C127.584 133.808 191.497 122.126 207.999 99.016Z" fill="#D1F4FC"/>
    <path d="M88.6225 43.215C88.5833 40.457 85.323 38.154 82.4453 38.158C79.5686 38.162 76.3073 40.452 76.2681 43.215C76.2464 44.713 74.8045 44.718 74.8261 43.215C74.8694 40.116 76.8364 37.382 79.8255 36.282C82.73 35.213 86.2358 36.094 88.2275 38.41C89.4023 39.776 90.0397 41.435 90.0645 43.215C90.0861 44.715 88.6442 44.715 88.6225 43.215Z" fill="#2C3242"/>
    <path d="M51.5139 43.215C51.4747 40.457 48.2143 38.154 45.3366 38.158C42.46 38.162 39.1986 40.452 39.1594 43.215C39.1378 44.713 37.6958 44.718 37.7175 43.215C37.7608 40.116 39.7277 37.382 42.7168 36.282C45.6213 35.213 49.1271 36.094 51.1188 38.41C52.2936 39.776 52.9311 41.435 52.9558 43.215C52.9775 44.715 51.5355 44.715 51.5139 43.215Z" fill="#2C3242"/>
    <path d="M68.2508 48.128C67.9403 50.133 66.9842 52.424 65.2339 53.625C63.9508 54.505 62.186 54.61 60.8111 53.861C59.5662 53.183 58.7967 51.931 58.2913 50.678C57.9458 49.822 57.7044 48.91 57.5972 47.996C57.5229 47.359 58.5522 47.364 58.6255 47.996C58.6399 48.117 58.6007 47.85 58.6306 48.031C58.6544 48.174 58.6781 48.317 58.707 48.46C58.7957 48.904 58.9101 49.344 59.0515 49.776C59.4083 50.868 59.9622 52.017 60.9163 52.737C61.9415 53.512 63.3835 53.569 64.4861 52.912C65.5196 52.296 66.1828 51.179 66.6139 50.11C66.9037 49.391 67.1399 48.63 67.2585 47.864C67.3565 47.23 68.3488 47.499 68.2508 48.128Z" fill="#2C3242"/>
    <path opacity="0.1" d="M74.1267 108.559C117.375 122.306 173.622 114.14 196.33 95.44C203.177 97.811 208 99.015 208 99.015C191.498 122.125 127.584 133.807 79.649 118.57C52.5297 109.949 37.0706 93.2 29.5123 76.37C38.2073 89.555 52.4265 101.661 74.1267 108.559Z" fill="#9FD4E5"/>
</g>


<g id="ghost-hands">
<path d="M15.1089 53.8629C15.1089 52.9908 13.8645 52.1644 11.9566 51.6519C12.3969 49.9454 12.2012 48.5876 11.339 48.1529C11.1403 48.051 10.9079 48.0027 10.6541 48.0027V48.601C10.7948 48.601 10.9079 48.6252 11.0027 48.6708C11.4185 48.8801 11.5989 49.677 11.4583 50.702C11.4246 50.9543 11.3696 51.2199 11.3023 51.4909C10.7031 51.3621 10.0488 51.2628 9.36082 51.1984C8.94806 50.702 8.52002 50.2512 8.08891 49.8568C9.08565 49.0438 10.0212 48.5984 10.6572 48.5984V48C9.81639 48 8.71569 48.5259 7.60277 49.4382C6.48985 48.5313 5.38916 48.0107 4.54835 48.0107V48.6091C5.18125 48.6091 6.11989 49.0518 7.11663 49.8595C6.68859 50.2539 6.26054 50.702 5.85389 51.1984C5.1629 51.2628 4.5086 51.3621 3.90934 51.4936C3.83901 51.2253 3.78704 50.965 3.75035 50.7154C3.60664 49.6904 3.78398 48.8935 4.19674 48.6815C4.28846 48.6332 4.4077 48.6118 4.54835 48.6118V48.0134C4.29152 48.0134 4.05915 48.0617 3.85736 48.1637C2.99821 48.5984 2.80558 49.9534 3.24892 51.6546C1.34717 52.1698 0.108887 52.9935 0.108887 53.8629C0.108887 54.7349 1.35328 55.5614 3.26115 56.0739C2.82087 57.7804 3.01655 59.1381 3.87876 59.5728C4.0775 59.6748 4.30987 59.7231 4.56669 59.7231C5.4075 59.7231 6.50819 59.1972 7.62112 58.2849C8.73404 59.1918 9.83473 59.7124 10.6755 59.7124C10.9324 59.7124 11.1647 59.6641 11.3665 59.5621C12.2257 59.1274 12.4183 57.7724 11.975 56.0712C13.8706 55.5587 15.1089 54.7323 15.1089 53.8629ZM11.128 52.0732C11.0149 52.4193 10.8743 52.7762 10.7153 53.133C10.5899 52.9184 10.4585 52.7037 10.3148 52.4891C10.1741 52.2744 10.0243 52.0651 9.87448 51.8612C10.3086 51.9175 10.7275 51.9873 11.128 52.0732ZM9.72772 54.9308C9.48924 55.2931 9.24464 55.6365 8.99087 55.9558C8.5353 55.9907 8.07362 56.0095 7.60889 56.0095C7.14721 56.0095 6.68553 55.9907 6.23302 55.9585C5.97925 55.6392 5.73159 55.2984 5.49311 54.9389C5.26074 54.5874 5.04978 54.2305 4.85715 53.8709C5.04672 53.5114 5.26074 53.1518 5.49005 52.8003C5.72854 52.4381 5.97313 52.0946 6.22691 51.7753C6.68247 51.7404 7.14415 51.7217 7.60889 51.7217C8.07057 51.7217 8.53225 51.7404 8.98475 51.7726C9.23852 52.0919 9.48618 52.4327 9.72466 52.7923C9.95703 53.1438 10.168 53.5007 10.3606 53.8602C10.168 54.2198 9.95703 54.5793 9.72772 54.9308ZM10.7153 54.582C10.8804 54.9416 11.021 55.3011 11.1372 55.6499C10.7367 55.7358 10.3148 55.8082 9.87754 55.8646C10.0274 55.658 10.1772 55.446 10.3178 55.2287C10.4585 55.014 10.5899 54.7967 10.7153 54.582ZM7.615 57.445C7.33066 57.1874 7.04631 56.9003 6.76502 56.5864C7.0402 56.5971 7.32148 56.6052 7.60583 56.6052C7.89323 56.6052 8.17758 56.5998 8.45581 56.5864C8.18064 56.9003 7.89629 57.1874 7.615 57.445ZM5.34024 55.8646C4.90607 55.8082 4.4872 55.7385 4.08667 55.6526C4.1998 55.3065 4.34044 54.9496 4.49943 54.5927C4.62479 54.8074 4.75626 55.0221 4.89996 55.2367C5.04366 55.4514 5.19042 55.6607 5.34024 55.8646ZM7.59972 50.2808C7.88406 50.5383 8.16841 50.8255 8.44969 51.1394C8.17452 51.1287 7.89323 51.1206 7.60889 51.1206C7.32148 51.1206 7.03714 51.126 6.75891 51.1394C7.03408 50.8255 7.31843 50.5383 7.59972 50.2808ZM5.33718 51.8612C5.18736 52.0678 5.03755 52.2798 4.8969 52.4971C4.75626 52.7118 4.62479 52.9264 4.49943 53.1411C4.33432 52.7815 4.19368 52.422 4.0775 52.0732C4.47803 51.99 4.89996 51.9175 5.33718 51.8612ZM2.57016 55.2206C1.48781 54.8154 0.787647 54.2842 0.787647 53.8629C0.787647 53.4416 1.48781 52.9077 2.57016 52.5052C2.8331 52.4059 3.12051 52.3173 3.41708 52.2342C3.59136 52.7601 3.82067 53.3075 4.10501 53.8683C3.82373 54.4264 3.59747 54.9711 3.42625 55.4943C3.12356 55.4111 2.83616 55.3199 2.57016 55.2206ZM4.21508 59.055C3.79927 58.8457 3.61887 58.0488 3.75952 57.0238C3.79315 56.7715 3.84819 56.5059 3.91545 56.2349C4.51472 56.3637 5.16902 56.463 5.85695 56.5274C6.26971 57.0238 6.69776 57.4745 7.12886 57.869C6.13212 58.682 5.19653 59.1274 4.56058 59.1274C4.42299 59.1247 4.30681 59.1006 4.21508 59.055ZM11.4674 57.0103C11.6111 58.0353 11.4338 58.8323 11.021 59.0442C10.9293 59.0925 10.8101 59.114 10.6694 59.114C10.0365 59.114 9.09788 58.6713 8.10114 57.8636C8.52919 57.4692 8.95724 57.0211 9.36388 56.5247C10.0549 56.4603 10.7092 56.361 11.3084 56.2295C11.3788 56.5005 11.4338 56.7608 11.4674 57.0103ZM12.6446 55.2206C12.3816 55.3199 12.0942 55.4084 11.7976 55.4916C11.6234 54.9657 11.394 54.4183 11.1097 53.8575C11.391 53.2994 11.6172 52.7547 11.7885 52.2315C12.0912 52.3147 12.3786 52.4059 12.6476 52.5052C13.73 52.9103 14.4301 53.4416 14.4301 53.8629C14.4271 54.2842 13.7269 54.8181 12.6446 55.2206Z" fill="#61DAFB"/>
<path d="M7.60576 55.0891C8.37745 55.0891 9.00303 54.5401 9.00303 53.8629C9.00303 53.1857 8.37745 52.6366 7.60576 52.6366C6.83407 52.6366 6.2085 53.1857 6.2085 53.8629C6.2085 54.5401 6.83407 55.0891 7.60576 55.0891Z" fill="#61DAFB"/>
    <path d="M38.6787 77.733C18.9454 87.383 -0.962187 78.41 0.435399 71.13C1.83195 63.85 14.7547 64.696 23.3114 64.696C31.8682 64.696 37.4565 62.664 37.4565 62.664L38.6787 77.733Z" fill="#D1F4FC"/>
    <path opacity="0.05" d="M0.435399 71.13C0.851065 68.966 2.28886 67.524 4.32387 66.56C4.14956 66.955 4.01547 67.38 3.9278 67.838C2.61686 74.671 20.0738 82.994 38.5395 76.011L38.6787 77.733C18.9454 87.384 -0.962187 78.411 0.435399 71.13Z" fill="#2C3242"/>
    <path d="M101.211 68.459C97.8279 69.335 94.3582 69.784 90.8905 69.894C87.4342 70.051 83.9531 69.749 80.4257 69.744C76.9075 69.72 73.3284 69.816 69.7741 70.775C68.0227 71.279 66.2126 72.074 64.8593 73.55C64.192 74.281 63.6907 75.177 63.4164 76.116C63.3586 76.355 63.2885 76.582 63.2462 76.831L63.1678 77.61L63.2214 78.384C63.2606 78.636 63.3307 78.881 63.3875 79.129C64.0022 81.076 65.3895 82.472 66.8294 83.589C68.2909 84.713 69.9164 85.549 71.5884 86.225C74.9487 87.541 78.5134 88.244 82.0821 88.379C85.6498 88.55 89.2248 88.175 92.6625 87.35C94.3798 86.929 96.0631 86.396 97.6948 85.751C99.342 85.145 100.906 84.351 102.435 83.527C96.0188 86.243 89.0195 87.492 82.1822 86.927C78.7754 86.63 75.3933 85.919 72.3011 84.599C70.7653 83.938 69.2687 83.167 68 82.162C67.3585 81.669 66.7871 81.115 66.2889 80.526C65.8165 79.925 65.4359 79.279 65.2368 78.617C65.0233 77.935 65.0316 77.336 65.2451 76.615C65.4431 75.921 65.7897 75.288 66.2755 74.744C67.2471 73.643 68.7437 72.946 70.3073 72.456C73.4872 71.492 76.9889 71.33 80.4442 71.191C83.9108 71.071 87.4363 71.177 90.9627 70.798C94.4593 70.381 97.9537 69.738 101.211 68.459Z" fill="#9FD4E5"/>
    <path d="M10.1089 71C7.34746 71 5.10889 70.1046 5.10889 69C5.10889 67.8954 7.34746 67 10.1089 67C12.8703 67 15.1089 67.8954 15.1089 69C15.1089 70.1046 12.8703 71 10.1089 71Z" fill="#9FD4E5"/>
</g>

</svg>
